# xmcd
#
# Track frame offsets:
# 150
# 15465
# 27786
# 47775
# 55805
# 72215
# 86986
# 97602
# 110098
# 125390
# 128522
# 142706
# 164865
#
# Disc length: 2232 seconds
#
#
# Revision: 0
# Processed by: cddbd v1.5.1PL0 Copyright (c) Steve Scherf et al.
# Submitted via: FreeRIP 2.90 
#
DISCID=a608b60d
DTITLE=Beastie Boys - Country Mike's Greatest Hits
DYEAR=2000
DGENRE=Country
TTITLE0=Sloppy Drunks
TTITLE1=Railroad Blues
TTITLE2=We Can Do This
TTITLE3=Country Delight
TTITLE4=Don't Let The Air Out My Tires
TTITLE5=How Do You Mend An Achin' Heart
TTITLE6=One Song A Night
TTITLE7=Country Christmas
TTITLE8=Kenny Jones (Country Knows Best)
TTITLE9=Country Mike's Theme
TTITLE10=On Your Way Up Again (The Fowl Song)
TTITLE11=We Can Do This (Live)
TTITLE12=The Half-Wit
EXTD=
EXTT0=
EXTT1=
EXTT2=
EXTT3=
EXTT4=
EXTT5=
EXTT6=
EXTT7=
EXTT8=
EXTT9=
EXTT10=
EXTT11=
EXTT12=
PLAYORDER=
